<svg width="25" height="21" viewBox="0 0 25 21" fill="none" xmlns="http://www.w3.org/2000/svg">
<path d="M22.4688 12.7227C22.4766 12.6484 22.5 12.5781 22.5 12.5039C22.5 11.125 21.3789 10.0039 20 10.0039C19.5078 10.0039 19.0547 10.1523 18.668 10.3945C17.9805 8.87891 16.4609 7.81641 14.6875 7.81641C12.2734 7.81641 10.3125 9.77344 10.3125 12.1914C10.3125 12.3086 10.3398 12.418 10.3477 12.5312C8.41016 12.6758 6.875 14.2773 6.875 16.2539C6.875 18.3242 8.55469 20.0039 10.625 20.0039H21.25C23.3203 20.0039 25 18.3242 25 16.2539C25 14.6094 23.9375 13.2305 22.4688 12.7227ZM5.65625 11.8398C3.94922 10.1328 3.94922 7.35938 5.65625 5.65625C7.36328 3.94922 10.1367 3.94922 11.8438 5.65625C12.2227 6.03516 12.5039 6.47266 12.7148 6.93359C13.0977 6.78906 13.5 6.69922 13.9141 6.64062L15.0781 3.16797C15.2344 2.70312 14.793 2.26562 14.3281 2.41797L10.8984 3.5625L9.27734 0.328125C9.0625 -0.109375 8.4375 -0.109375 8.21875 0.328125L6.60156 3.5625L3.16797 2.41797C2.70703 2.26562 2.26562 2.70703 2.41797 3.16797L3.5625 6.59766L0.328125 8.21875C-0.109375 8.4375 -0.109375 9.05859 0.328125 9.27734L3.5625 10.8945L2.41797 14.3242C2.26172 14.7891 2.70312 15.2266 3.16797 15.0742L6.14062 14.0859C6.37891 13.6016 6.6875 13.1602 7.0625 12.7773C6.55078 12.5664 6.07031 12.2539 5.65625 11.8398ZM5.46875 8.74609C5.46875 10.3398 6.61328 11.668 8.12109 11.9609C8.43359 11.7773 8.75781 11.6172 9.10547 11.5039C9.31641 9.77344 10.3164 8.28125 11.7383 7.40234C11.2227 6.26562 10.0781 5.46875 8.75 5.46875C6.94141 5.46875 5.46875 6.9375 5.46875 8.74609Z" fill="#808080"/>
</svg>
