<svg width="26" height="23" viewBox="0 0 26 23" fill="none" xmlns="http://www.w3.org/2000/svg">
<path d="M14.8785 15.3082C15.1259 14.8915 15.2778 14.4097 15.2778 13.8889C15.2778 12.3568 14.0321 11.1111 12.5 11.1111C11.7535 11.1111 11.0764 11.4106 10.5773 11.888C9.86979 10.6033 8.51562 9.72222 6.94444 9.72222C4.6441 9.72222 2.77778 11.5885 2.77778 13.8889C2.77778 13.9757 2.79948 14.0538 2.80382 14.1363C1.17622 14.7049 0 16.237 0 18.0556C0 20.3559 1.86632 22.2222 4.16667 22.2222H14.5833C16.5017 22.2222 18.0556 20.6684 18.0556 18.75C18.0556 16.9314 16.6536 15.4601 14.8785 15.3082ZM24.5356 12.9514C20.4948 13.7196 16.7882 10.6207 16.7882 6.5408C16.7882 4.18837 18.0469 2.02691 20.0911 0.863715C20.408 0.685764 20.3255 0.208333 19.9696 0.138889C19.4618 0.0477431 18.954 0 18.4462 0C13.8498 0 10.1172 3.7283 10.1172 8.33333C10.1172 8.70226 10.1476 9.0625 10.1953 9.4184C10.4514 9.60503 10.6988 9.80469 10.9201 10.0347C11.4149 9.83073 11.9488 9.72222 12.5 9.72222C14.796 9.72222 16.6667 11.5929 16.6667 13.8889C16.6667 14.0451 16.658 14.2014 16.6406 14.3533C17.6649 14.822 18.4809 15.6337 18.9627 16.6363C21.3238 16.4887 23.4635 15.3646 24.9132 13.5807C25.1432 13.2986 24.8915 12.8819 24.5356 12.9514Z" fill="#C9C9C9"/>
</svg>
